# xmcd
#
# Track frame offsets: 
#        150
#        9442
#        18665
#        36357
#        47855
#        60186
#        69217
#        86430
#        94877
#        114356
#        126225
#        138935
#        155088
#        173946
#        185682
#        197789
#        207326
#        219629
#        230624
#        245715
#        268983
#        284242
#        296664
#        309210
#
# Disc length: 4315 seconds
#
# Revision: 0
# Processed by: cddbd v1.5.2PL0 Copyright (c) Steve Scherf et al.
# Submitted via: ExactAudioCopyFreeDBPlugin 1.0
#
DISCID=7010d918
DTITLE=Various Artist - Texas Baby
DYEAR=2003
DGENRE=Rock
TTITLE0=Frankie Laine - Rawhide
TTITLE1=Patsy Cline - Walkin' After Midnight
TTITLE2=FSK - When It Rains In Texas (It Snows On The Rhine)
TTITLE3=Leroy Pullins - I'm A Nut
TTITLE4=Dolly Parton - Joöene
TTITLE5=Anita Carter - (Love's) Ring Of Fire
TTITLE6=Johnny Cash - (Ghost) Riders In The Sky
TTITLE7=Roger Miller - Dang Me
TTITLE8=The Soggy Bottom Boys - I Am A Man Of Constant Sorrow
TTITLE9=Rusty Draper - Gambler's Guitar
TTITLE10=Hugo Montenegro - The Good, The Bad And The Ugly
TTITLE11=Dreher Bügel - Two Guns In A Rope
TTITLE12=Cow - Household Full Of Strangers
TTITLE13=Hank Williams - Kaw-Liga
TTITLE14=Ian Calford and The Brakemen - So Doggone Lonesome
TTITLE15=Jim Wayne Swingtett - Caroline
TTITLE16=Bobby Helms - Fraulein
TTITLE17=The Statler Brothers - Flowers On The Wall
TTITLE18=Giant Sand - Nowhere
TTITLE19=Billy Bob Thornton - Lost Highway
TTITLE20=Willie Nelson - I'm My Own Grandpaw
TTITLE21=Ray Price - Release Me
TTITLE22=Bill Monroe - Mule Skinner Blues
TTITLE23=Lee Hazlewood - These Boots Are Made For Walking
EXTD=
EXTT0=
EXTT1=
EXTT2=
EXTT3=
EXTT4=
EXTT5=
EXTT6=
EXTT7=
EXTT8=
EXTT9=
EXTT10=
EXTT11=
EXTT12=
EXTT13=
EXTT14=
EXTT15=
EXTT16=
EXTT17=
EXTT18=
EXTT19=
EXTT20=
EXTT21=
EXTT22=
EXTT23=
PLAYORDER=
